<?xml version="1.0" encoding="UTF-8" standalone="no"?>
<!-- Created with Inkscape (http://www.inkscape.org/) -->

<svg
   xmlns:dc="http://purl.org/dc/elements/1.1/"
   xmlns:cc="http://creativecommons.org/ns#"
   xmlns:rdf="http://www.w3.org/1999/02/22-rdf-syntax-ns#"
   xmlns:svg="http://www.w3.org/2000/svg"
   xmlns="http://www.w3.org/2000/svg"
   xmlns:sodipodi="http://sodipodi.sourceforge.net/DTD/sodipodi-0.dtd"
   xmlns:inkscape="http://www.inkscape.org/namespaces/inkscape"
   width="250"
   height="250"
   viewBox="0 0 66.145832 66.145835"
   version="1.1"
   id="svg8"
   inkscape:version="0.92.2 5c3e80d, 2017-08-06"
   sodipodi:docname="FSHKIcon.svg">
  <defs
     id="defs2" />
  <sodipodi:namedview
     id="base"
     pagecolor="#ffffff"
     bordercolor="#666666"
     borderopacity="1.0"
     inkscape:pageopacity="0.0"
     inkscape:pageshadow="2"
     inkscape:zoom="2.8643663"
     inkscape:cx="73.71794"
     inkscape:cy="151.41447"
     inkscape:document-units="px"
     inkscape:current-layer="layer1"
     showgrid="true"
     units="px"
     inkscape:window-width="1440"
     inkscape:window-height="835"
     inkscape:window-x="1024"
     inkscape:window-y="0"
     inkscape:window-maximized="1"
     inkscape:snap-nodes="false"
     inkscape:snap-bbox="true"
     showguides="false">
    <inkscape:grid
       type="xygrid"
       id="grid815" />
  </sodipodi:namedview>
  <metadata
     id="metadata5">
    <rdf:RDF>
      <cc:Work
         rdf:about="">
        <dc:format>image/svg+xml</dc:format>
        <dc:type
           rdf:resource="http://purl.org/dc/dcmitype/StillImage" />
        <dc:title />
      </cc:Work>
    </rdf:RDF>
  </metadata>
  <g
     inkscape:label="Ebene 1"
     inkscape:groupmode="layer"
     id="layer1"
     transform="translate(0,-230.85415)">
    <path
       style="fill:none;fill-rule:evenodd;stroke:#008700;stroke-width:0.89431697;stroke-linecap:round;stroke-linejoin:miter;stroke-miterlimit:4;stroke-dasharray:none;stroke-opacity:1"
       d="M 20.315579,257.44528 H 42.71809"
       id="path1095-2-2"
       inkscape:connector-curvature="0" />
    <path
       style="fill:none;fill-rule:evenodd;stroke:#008700;stroke-width:0.89431691;stroke-linecap:round;stroke-linejoin:miter;stroke-miterlimit:4;stroke-dasharray:none;stroke-opacity:1"
       d="M 20.31558,262.19387 H 42.71809"
       id="path1095-2-2-8"
       inkscape:connector-curvature="0" />
    <path
       style="opacity:1;fill:none;fill-rule:evenodd;stroke:#008700;stroke-width:0.89431703;stroke-linecap:round;stroke-linejoin:miter;stroke-miterlimit:4.5999999;stroke-dasharray:none;stroke-opacity:1"
       d="M 29.748215,266.94247 H 42.71809"
       id="path1095-2-2-8-9"
       inkscape:connector-curvature="0" />
    <path
       style="fill:none;fill-rule:evenodd;stroke:#008700;stroke-width:0.89431703;stroke-linecap:round;stroke-linejoin:miter;stroke-miterlimit:4;stroke-dasharray:none;stroke-opacity:1"
       d="M 23.852817,246.76095 H 34.464533"
       id="path1095"
       inkscape:connector-curvature="0" />
    <path
       id="path998"
       style="fill:none;fill-rule:evenodd;stroke:#008700;stroke-width:1.00281346;stroke-linecap:butt;stroke-linejoin:miter;stroke-miterlimit:4;stroke-dasharray:none;stroke-opacity:1"
       d="m 39.475623,239.63806 v 7.96088 h 7.958786 m -31.835148,-7.96088 h 23.876362 l 7.958786,7.96088 v 37.15075 H 15.59926 Z"
       inkscape:connector-curvature="0" />
    <path
       style="fill:#ffffff;fill-opacity:1;fill-rule:nonzero;stroke:#ffc700;stroke-width:0.89431703;stroke-linecap:round;stroke-linejoin:miter;stroke-miterlimit:4;stroke-dasharray:none;stroke-dashoffset:0;stroke-opacity:1"
       id="path1072-9"
       sodipodi:type="arc"
       sodipodi:cx="15.575662"
       sodipodi:cy="275.17361"
       sodipodi:rx="5.685462"
       sodipodi:ry="5.7243643"
       sodipodi:start="4.7164905"
       sodipodi:end="4.683434"
       sodipodi:open="true"
       d="m 15.598981,269.4493 a 5.685462,5.7243643 0 0 1 5.662093,5.70049 5.685462,5.7243643 0 0 1 -5.614762,5.74775 5.685462,5.7243643 0 0 1 -5.7548954,-5.60549 5.685462,5.7243643 0 0 1 5.5196454,-5.8404" />
    <path
       style="fill:none;fill-rule:evenodd;stroke:#008700;stroke-width:0.89431703;stroke-linecap:round;stroke-linejoin:miter;stroke-miterlimit:4;stroke-dasharray:none;stroke-opacity:1"
       d="M 20.315579,252.69669 H 42.71809"
       id="path1095-2"
       inkscape:connector-curvature="0" />
    <path
       style="fill:#ffffff;fill-opacity:1;fill-rule:nonzero;stroke:#ffc700;stroke-width:0.89431703;stroke-linecap:round;stroke-linejoin:miter;stroke-miterlimit:4;stroke-dasharray:none;stroke-dashoffset:0;stroke-opacity:1"
       id="path1072"
       sodipodi:type="arc"
       sodipodi:cx="15.577103"
       sodipodi:cy="275.27063"
       sodipodi:rx="3.1082664"
       sodipodi:ry="3.1295197"
       sodipodi:start="4.7164905"
       sodipodi:end="4.683434"
       sodipodi:open="true"
       d="m 15.589851,272.14114 a 3.1082664,3.1295197 0 0 1 3.095491,3.11646 3.1082664,3.1295197 0 0 1 -3.069615,3.14231 3.1082664,3.1295197 0 0 1 -3.146225,-3.06453 3.1082664,3.1295197 0 0 1 3.017613,-3.19296" />
    <path
       style="fill:#ffffff;fill-opacity:1;fill-rule:evenodd;stroke:#ffc700;stroke-width:0.89431703;stroke-linecap:butt;stroke-linejoin:miter;stroke-miterlimit:4;stroke-dasharray:none;stroke-opacity:1"
       d="m 12.062022,279.76367 v 10.92175 H 13.2411 l 2.35816,-4.09565 2.358159,4.09565 h 1.17908 v -10.92175"
       id="path1089"
       inkscape:connector-curvature="0" />
    <path
       style="fill:none;fill-rule:evenodd;stroke:#c87137;stroke-width:1.71979167;stroke-linecap:round;stroke-linejoin:miter;stroke-miterlimit:4;stroke-dasharray:none;stroke-opacity:1"
       d="M 14.672842,233.49998 H 54.76287 l 8.018006,8.11391 v 44.62638 l -8.018006,8.11388 H 10.663838 l -8.0180047,-8.11388 v -40.56945"
       id="path1159"
       inkscape:connector-curvature="0"
       sodipodi:nodetypes="cccccccc" />
    <path
       style="fill:none;fill-rule:evenodd;stroke:#c87137;stroke-width:1.72;stroke-linecap:round;stroke-linejoin:miter;stroke-miterlimit:4;stroke-dasharray:none;stroke-opacity:1"
       d="m 10.663841,233.49998 -8.0180077,8.11391"
       id="path1161"
       inkscape:connector-curvature="0" />
    <path
       id="path898-5-3"
       style="fill:#c87137;fill-opacity:1;fill-rule:evenodd;stroke:#0000fb;stroke-width:0.28063297px;stroke-linecap:butt;stroke-linejoin:miter;stroke-opacity:1"
       d="m 29.874161,265.03087 0.568506,-0.55392 -1.292501,-1.32654 -1.311939,0.17008 -2.131898,2.07724 -0.156697,1.26093 1.292505,1.32651 0.568506,-0.55393 20.486148,20.93039 c 0,0 0.545293,0.58375 0.887565,0.60225 0.342272,0.0185 0.523495,-0.23895 0.671362,-0.38617 0.147868,-0.14717 -0.211331,-1.49875 -0.211331,-1.49875 z m 6.667634,-7.12122 0.478325,-0.63343 -1.478022,-1.11611 -1.271203,0.36627 -1.793718,2.37539 0.03554,1.27013 1.478022,1.11609 0.478324,-0.63344 21.969396,19.07212 c 0,0 1.04442,0.41444 1.38556,0.38103 0.34114,-0.0334 0.430279,-0.1093 0.554223,-0.27711 0.123944,-0.16781 0.103917,-0.6235 0.103917,-0.6235 z m -16.347146,-11.66094 1.489444,4.94383 c 0.297884,0.98876 -0.374976,1.9123 -1.152866,2.14665 -0.77789,0.23437 -1.849556,-0.16358 -2.147436,-1.15238 l -1.489443,-4.94383 c -0.297882,-0.98874 0.352876,-1.90561 1.130766,-2.13995 0.777888,-0.23435 1.871656,0.1569 2.169537,1.14568 z m -1.167118,0.95949 a 1.0652391,1.0652391 0 0 1 1.060861,1.0608 1.0652391,1.0652391 0 0 1 -1.051993,1.06959 1.0652391,1.0652391 0 0 1 -1.078248,-1.04312 1.0652391,1.0652391 0 0 1 1.034171,-1.08683 m 2.151876,-2.91086 12.435416,11.90625 -1.5875,2.11667 v 0.26458 l -8.995833,-7.67291 z m 6.35,18.52084 -1.852083,1.85208 -6.879168,-7.40833 -2.910416,-11.37709 -0.79375,-0.79375 -0.79375,-3.96875 c 0,0 1.17753,-0.29938 1.852083,-0.26458 0.674553,0.0348 1.474623,0.16565 2.116667,0.52917 0.642044,0.36352 1.058333,0.79375 1.5875,1.5875 0.529167,0.79375 4.7625,14.81666 4.7625,14.81666 z m -19.8437503,-13.75834 1.5875,-0.52916 2.1166663,0.52916 1.852083,-1.85208 2.116667,-0.79375 1.058333,4.7625 c 0,0 -1.706811,0.49576 -2.910416,0.52917 -1.203605,0.0334 -2.900497,-0.0333 -4.2333343,-0.52917 -0.596062,-0.22176 -1.5875,-1.05833 -1.5875,-1.05833 z m -0.264583,-1.5875 c 0,0 -0.315896,-0.50581 0,-1.32291 0.315896,-0.8171 1.616376,-2.10573 2.6458323,-2.91042 1.029456,-0.80469 3.439584,-1.85208 3.439584,-1.85208 l 1.058333,3.96875 0.79375,0.52916 -2.116667,0.52917 c 0,0 -1.408851,-0.69626 -2.116666,-0.52917 -0.791361,0.18681 -1.8520843,1.5875 -1.8520843,1.5875 l -1.5875,0.26459 z"
       inkscape:connector-curvature="0" />
  </g>
</svg>
