<?xml version="1.0" encoding="UTF-8" standalone="no"?>
<!-- Created with Inkscape (http://www.inkscape.org/) -->

<svg
   xmlns:dc="http://purl.org/dc/elements/1.1/"
   xmlns:cc="http://creativecommons.org/ns#"
   xmlns:rdf="http://www.w3.org/1999/02/22-rdf-syntax-ns#"
   xmlns:svg="http://www.w3.org/2000/svg"
   xmlns="http://www.w3.org/2000/svg"
   xmlns:sodipodi="http://sodipodi.sourceforge.net/DTD/sodipodi-0.dtd"
   xmlns:inkscape="http://www.inkscape.org/namespaces/inkscape"
   width="250"
   height="250"
   viewBox="0 0 66.145832 66.145835"
   version="1.1"
   id="svg8"
   inkscape:version="0.92.2 5c3e80d, 2017-08-06"
   sodipodi:docname="LightBulb.svg">
  <defs
     id="defs2" />
  <sodipodi:namedview
     id="base"
     pagecolor="#ffffff"
     bordercolor="#666666"
     borderopacity="1.0"
     inkscape:pageopacity="0.0"
     inkscape:pageshadow="2"
     inkscape:zoom="1.3923507"
     inkscape:cx="105.76947"
     inkscape:cy="176.87417"
     inkscape:document-units="px"
     inkscape:current-layer="layer1"
     showgrid="true"
     units="px"
     inkscape:window-width="1440"
     inkscape:window-height="835"
     inkscape:window-x="1024"
     inkscape:window-y="0"
     inkscape:window-maximized="1"
     inkscape:snap-nodes="false">
    <inkscape:grid
       type="xygrid"
       id="grid815" />
  </sodipodi:namedview>
  <metadata
     id="metadata5">
    <rdf:RDF>
      <cc:Work
         rdf:about="">
        <dc:format>image/svg+xml</dc:format>
        <dc:type
           rdf:resource="http://purl.org/dc/dcmitype/StillImage" />
        <dc:title />
      </cc:Work>
    </rdf:RDF>
  </metadata>
  <g
     inkscape:label="Ebene 1"
     inkscape:groupmode="layer"
     id="layer1"
     transform="translate(0,-230.85415)">
    <path
       style="fill:#ffc600;fill-rule:evenodd;stroke:#000000;stroke-width:0.79375;stroke-linecap:butt;stroke-linejoin:miter;stroke-miterlimit:4;stroke-dasharray:none;stroke-opacity:1;fill-opacity:1"
       d="m 41.397993,278.7502 c 1.385991,-0.008 0.0374,-1.9746 1.59667,-6.78122 0.682721,-2.10455 3.481033,-4.81913 4.689577,-8.04191 3.96875,-11.90625 -3.704166,-20.10833 -14.2875,-19.84375 -10.583333,-0.26458 -17.4625,9.26041 -13.229166,19.84375 1.358221,2.91047 4.101294,5.58197 4.967843,7.9375 1.49672,4.06852 0.748224,6.97595 1.753441,6.9701 z"
       id="path839"
       inkscape:connector-curvature="0"
       sodipodi:nodetypes="ssccccss" />
    <rect
       style="opacity:1;fill:#00ffff;fill-opacity:1;fill-rule:nonzero;stroke:#000000;stroke-width:0.56195158;stroke-linecap:round;stroke-linejoin:miter;stroke-miterlimit:4;stroke-dasharray:none;stroke-dashoffset:0;stroke-opacity:0.99607843"
       id="rect2222"
       width="19.54538"
       height="3.5903869"
       x="24.11285"
       y="278.8595"
       ry="1.3762422" />
    <rect
       style="opacity:1;fill:#00ffff;fill-opacity:1;fill-rule:nonzero;stroke:#000000;stroke-width:0.52276725;stroke-linecap:round;stroke-linejoin:miter;stroke-miterlimit:4;stroke-dasharray:none;stroke-dashoffset:0;stroke-opacity:0.99607843"
       id="rect2222-1"
       width="16.933332"
       height="3.586426"
       x="25.399975"
       y="282.40692"
       ry="1.374724" />
    <path
       style="opacity:1;fill:#00ffff;fill-opacity:1;fill-rule:nonzero;stroke:#000000;stroke-width:0.35214496;stroke-linecap:round;stroke-linejoin:miter;stroke-miterlimit:4;stroke-dasharray:none;stroke-dashoffset:0;stroke-opacity:0.99607843"
       d="m 28.164151,285.9564 c -0.504592,0 -0.910925,0.35674 -0.910925,0.80042 v 0.48787 c 0,0.0503 0.0067,0.0995 0.01667,0.14705 h -0.03631 a 6.585674,1.7590454 0 0 0 3.334093,1.53591 6.585674,1.7590454 0 0 0 6.645562,-0.0225 6.585674,1.7590454 0 0 0 3.175723,-1.3977 c 0.0327,-0.0826 0.05419,-0.17001 0.05419,-0.2628 v -0.48786 c 0,-0.44367 -0.406332,-0.80042 -0.910924,-0.80042 z"
       id="rect2222-1-0"
       inkscape:connector-curvature="0" />
    <path
       style="fill:none;fill-rule:evenodd;stroke:#000000;stroke-width:0.873125;stroke-linecap:round;stroke-linejoin:miter;stroke-miterlimit:4;stroke-dasharray:none;stroke-opacity:1"
       d="m 33.866667,234.55832 v 5.82084"
       id="path2258"
       inkscape:connector-curvature="0" />
    <path
       style="fill:none;fill-rule:evenodd;stroke:#000000;stroke-width:0.87312502;stroke-linecap:round;stroke-linejoin:miter;stroke-miterlimit:4;stroke-dasharray:none;stroke-opacity:1"
       d="M 46.325974,236.42202 45.914482,237.23081 43.68646,241.61"
       id="path2258-0"
       inkscape:connector-curvature="0"
       sodipodi:nodetypes="ccc" />
    <path
       style="fill:none;fill-rule:evenodd;stroke:#000000;stroke-width:0.87312502;stroke-linecap:round;stroke-linejoin:miter;stroke-miterlimit:4;stroke-dasharray:none;stroke-opacity:1"
       d="m 21.127079,236.49407 0.411492,0.80879 2.228022,4.37919"
       id="path2258-0-6"
       inkscape:connector-curvature="0"
       sodipodi:nodetypes="ccc" />
    <path
       style="fill:none;fill-rule:evenodd;stroke:#000000;stroke-width:0.7287178;stroke-linecap:round;stroke-linejoin:miter;stroke-miterlimit:4;stroke-dasharray:none;stroke-opacity:1"
       d="m 13.199244,244.63196 0.602521,0.38717 3.262357,2.09629"
       id="path2258-0-6-4"
       inkscape:connector-curvature="0"
       sodipodi:nodetypes="ccc" />
    <path
       style="fill:none;fill-rule:evenodd;stroke:#000000;stroke-width:0.7287178;stroke-linecap:round;stroke-linejoin:miter;stroke-miterlimit:4;stroke-dasharray:none;stroke-opacity:1"
       d="m 54.294753,244.48554 -0.602521,0.38717 -3.262357,2.09629"
       id="path2258-0-6-4-4"
       inkscape:connector-curvature="0"
       sodipodi:nodetypes="ccc" />
    <path
       style="fill:none;fill-rule:evenodd;stroke:#000000;stroke-width:0.67042387;stroke-linecap:round;stroke-linejoin:miter;stroke-miterlimit:4;stroke-dasharray:none;stroke-opacity:1"
       d="m 11.183606,254.11204 0.536469,0.084 2.904702,0.4545"
       id="path2258-0-6-4-3"
       inkscape:connector-curvature="0"
       sodipodi:nodetypes="ccc" />
    <path
       style="fill:none;fill-rule:evenodd;stroke:#000000;stroke-width:0.67042387;stroke-linecap:round;stroke-linejoin:miter;stroke-miterlimit:4;stroke-dasharray:none;stroke-opacity:1"
       d="m 56.335563,254.273 -0.536469,0.084 -2.904702,0.4545"
       id="path2258-0-6-4-3-7"
       inkscape:connector-curvature="0"
       sodipodi:nodetypes="ccc" />
    <path
       style="opacity:1;fill:#ffffff;fill-opacity:1;fill-rule:nonzero;stroke:#ffffff;stroke-width:0.64650238;stroke-linecap:round;stroke-linejoin:round;stroke-miterlimit:4;stroke-dasharray:none;stroke-dashoffset:0;stroke-opacity:0.99607843"
       id="path2350"
       sodipodi:type="arc"
       sodipodi:cx="243.55157"
       sodipodi:cy="24.965614"
       sodipodi:rx="3.8219676"
       sodipodi:ry="4.8134971"
       sodipodi:start="6.254719"
       sodipodi:end="6.2461085"
       d="m 247.37199,24.82861 a 3.8219676,4.8134971 0 0 1 -3.70341,4.948245 3.8219676,4.8134971 0 0 1 -3.93692,-4.653523 3.8219676,4.8134971 0 0 1 3.68646,-4.96828 3.8219676,4.8134971 0 0 1 3.9528,4.632134"
       sodipodi:open="true"
       transform="matrix(0.19360552,0.98107946,-0.8362926,0.54828341,0,0)" />
    <path
       style="fill:none;fill-rule:evenodd;stroke:#ffffff;stroke-width:1.02117729;stroke-linecap:round;stroke-linejoin:miter;stroke-miterlimit:4;stroke-dasharray:none;stroke-opacity:1"
       d="m 27.347197,263.85851 c 0,0 1.940825,1.46949 3.092495,1.51239 1.185146,0.0441 2.10836,-1.33562 3.29418,-1.31512 0.982799,0.017 1.706539,1.1574 2.689126,1.1836 1.368667,0.0365 3.832007,-1.44663 3.832007,-1.44663"
       id="path2354"
       inkscape:connector-curvature="0"
       sodipodi:nodetypes="csssc" />
    <path
       style="fill:none;fill-rule:evenodd;stroke:#ffffff;stroke-width:1.02117729;stroke-linecap:butt;stroke-linejoin:miter;stroke-miterlimit:4;stroke-dasharray:none;stroke-opacity:1"
       d="m 36.859982,265.50241 -3.025267,12.75664 -3.36141,-12.69088"
       id="path2356"
       inkscape:connector-curvature="0" />
  </g>
</svg>
