<?xml version="1.0" encoding="UTF-8" standalone="no"?>
<!-- Created with Inkscape (http://www.inkscape.org/) -->

<svg
   xmlns:dc="http://purl.org/dc/elements/1.1/"
   xmlns:cc="http://creativecommons.org/ns#"
   xmlns:rdf="http://www.w3.org/1999/02/22-rdf-syntax-ns#"
   xmlns:svg="http://www.w3.org/2000/svg"
   xmlns="http://www.w3.org/2000/svg"
   xmlns:sodipodi="http://sodipodi.sourceforge.net/DTD/sodipodi-0.dtd"
   xmlns:inkscape="http://www.inkscape.org/namespaces/inkscape"
   width="250"
   height="250"
   viewBox="0 0 66.145832 66.145835"
   version="1.1"
   id="svg853"
   inkscape:version="0.92.2 5c3e80d, 2017-08-06"
   sodipodi:docname="Wrench.svg">
  <defs
     id="defs847" />
  <sodipodi:namedview
     id="base"
     pagecolor="#ffffff"
     bordercolor="#666666"
     borderopacity="1.0"
     inkscape:pageopacity="0.0"
     inkscape:pageshadow="2"
     inkscape:zoom="1.7664062"
     inkscape:cx="112.01925"
     inkscape:cy="100.92632"
     inkscape:document-units="mm"
     inkscape:current-layer="layer1"
     showgrid="false"
     units="px"
     inkscape:window-width="1440"
     inkscape:window-height="835"
     inkscape:window-x="1024"
     inkscape:window-y="0"
     inkscape:window-maximized="1" />
  <metadata
     id="metadata850">
    <rdf:RDF>
      <cc:Work
         rdf:about="">
        <dc:format>image/svg+xml</dc:format>
        <dc:type
           rdf:resource="http://purl.org/dc/dcmitype/StillImage" />
        <dc:title></dc:title>
      </cc:Work>
    </rdf:RDF>
  </metadata>
  <g
     inkscape:label="Ebene 1"
     inkscape:groupmode="layer"
     id="layer1"
     transform="translate(0,-230.85415)">
    <path
       inkscape:connector-curvature="0"
       d="m 29.234171,264.09225 0.729801,-0.75731 -1.659193,-1.81361 -1.684146,0.23253 -2.736736,2.83994 -0.201157,1.72391 1.659205,1.81359 0.7298,-0.75732 26.298203,28.61549 c 0,0 0.700007,0.79808 1.139381,0.82337 0.439374,0.0253 0.672007,-0.32669 0.861829,-0.52796 0.189822,-0.20121 -0.271285,-2.04905 -0.271285,-2.04905 z m 8.559294,-9.73595 0.614023,-0.86601 -1.897345,-1.52591 -1.631845,0.50075 -2.302611,3.24757 0.04557,1.73649 1.897344,1.52588 0.614023,-0.86601 28.202275,26.07491 c 0,0 1.34073,0.56661 1.778654,0.52093 0.437923,-0.0457 0.552353,-0.14943 0.711456,-0.37886 0.159115,-0.22942 0.133403,-0.85243 0.133403,-0.85243 z m -20.984952,-15.94254 1.912018,6.75908 c 0.382391,1.3518 -0.481364,2.61445 -1.479948,2.93485 -0.998582,0.32041 -2.374293,-0.22365 -2.756684,-1.57551 l -1.912005,-6.75908 c -0.382391,-1.35177 0.452995,-2.6053 1.451577,-2.92568 0.998571,-0.3204 2.402651,0.21451 2.785042,1.56634 z m -1.49824,1.3118 a 1.3674552,1.4563675 0 0 1 1.361833,1.45029 1.3674552,1.4563675 0 0 1 -1.350447,1.46231 1.3674552,1.4563675 0 0 1 -1.384157,-1.42612 1.3674552,1.4563675 0 0 1 1.327571,-1.48588 m 2.762385,-3.97965 15.963439,16.27791 -2.037886,2.89386 V 255.28 L 20.404986,244.7898 Z m 8.151541,25.32121 -2.377529,2.53211 -8.83084,-10.12848 -3.736128,-15.55446 -1.018943,-1.08519 -1.0189425,-5.42598 c 0,0 1.5116035,-0.40931 2.3775415,-0.36172 0.865924,0.0476 1.892981,0.22647 2.717173,0.72346 0.824204,0.497 1.358598,1.0852 2.037884,2.17039 0.6793,1.0852 6.113656,20.25696 6.113656,20.25696 z m -25.4735666,-18.81005 2.0378849,-0.72345 2.7171847,0.72345 2.3775286,-2.53211 2.7171844,-1.0852 1.358586,6.51116 c 0,0 -2.1910442,0.6778 -3.7361271,0.72347 -1.5450701,0.0457 -3.7233802,-0.0456 -5.4343579,-0.72347 -0.7651691,-0.30318 -2.03788488,-1.44691 -2.03788488,-1.44691 z m -0.33964712,-2.17039 c 0,0 -0.405518,-0.69154 0,-1.80865 0.40551799,-1.11712 2.07495322,-2.8789 3.39647462,-3.97905 1.3215254,-1.10015 4.415414,-2.53212 4.415414,-2.53212 l 1.3585988,5.42597 1.0189423,0.72346 -2.7171844,0.72347 c 0,0 -1.808551,-0.95191 -2.7171847,-0.72347 -1.0158746,0.25541 -2.3775299,2.17039 -2.3775299,2.17039 l -2.03788488,0.36173 z"
       style="fill:#c87137;fill-opacity:1;fill-rule:evenodd;stroke:#0000fb;stroke-width:0.37177795px;stroke-linecap:butt;stroke-linejoin:miter;stroke-opacity:1"
       id="path898-5-3" />
  </g>
</svg>
